<svg xmlns="http://www.w3.org/2000/svg" width="1440" height="120" fill="none"><g fill="#C8E1DD" clip-path="url(#a)"><path d="M95.238 59.779h-2.581v-5.435H86.95v5.706h5.435v5.163H86.95v5.436h-5.163v-5.436h-5.435V60.05h5.435v-5.706H76.08v5.434h-5.163v-5.434h-5.435V49.18h5.435v-5.706h-5.706v5.435h-5.164v-5.435h-5.706v5.706h5.435v5.164H54.34v5.434h-5.163v-5.434H43.47v5.706h5.435v5.163H43.47v5.436h-5.163v-5.436h-5.435V60.05h5.435v-5.706H32.6v5.434h-5.163v-5.434h-5.706v5.706h5.434v5.163h-5.434v5.436h-5.164v-5.436h-5.435V60.05h5.435v-5.706h-5.706v5.434H5.698v-5.434H0v5.706h5.435v5.163H0v5.707h5.706v-5.435h5.164v5.435h5.435v5.163H10.87v5.435H5.706v-5.435H0v5.707h5.435v5.163H0v5.707h5.435v5.163H0v87.223h244.82V97.823h-5.435V92.66h5.435V76.083h-5.435V70.92h5.435v-5.707h-5.707v5.436h-5.163v-5.436h-5.435V60.05h5.435v-5.706h-5.706v5.434h-5.164v-5.434h-5.706v5.706h5.435v5.163h-5.435v5.436h-5.163v-5.436h-5.435V60.05h5.435v-5.706h-5.707v5.434h-5.163v-5.434h-5.435V49.18h5.435v-5.706h-5.707v5.435h-5.163v-5.435h-5.706v5.706h5.434v5.164h-5.434v5.434h-5.164v-5.434h-5.706v5.706h5.435v5.163h-5.435v5.436h-5.163v-5.436h-5.435V60.05h5.435v-5.706h-5.707v5.434h-5.163v-5.434h-5.435V49.18h5.435v-5.706h-5.707v5.435h-5.163v-5.435h-5.706v5.706h5.434v5.164h-5.434v5.434h-5.164v-5.434h-5.706v5.706h5.435v5.163h-5.435v5.436h-5.164v-5.436h-5.434V60.05h5.434v-5.706h-5.706v5.434h-5.163v-5.434h-5.435V49.18h5.435v-5.706h-5.707v5.435h-5.163v-5.435h-5.707v5.706h5.435v5.164h-5.435v5.434h-2.581.013Zm-30.025-2.445v2.716h5.435v5.163h-5.435v5.436H60.05v-5.436h-5.435V60.05h5.435v-5.435h5.163zm173.9 43.34v2.582h-5.163v-5.164h5.163zm0-21.737v2.581h-5.163v-5.163h5.163zM195.64 57.334v2.716h5.435v5.163h-5.435v5.436h-5.164v-5.436h-5.434V60.05h5.434v-5.435h5.164zm-43.477 0v2.716h5.435v5.163h-5.435v5.436H147v-5.436h-5.435V60.05H147v-5.435h5.163zm-43.473 0v2.716h5.435v5.163h-5.435v5.436h-5.164v-5.436h-5.434V60.05h5.434v-5.435h5.164zM81.515 84.369v2.582h-5.163v-5.164h5.163zm-5.432-5.432v2.581H70.92v-5.163h5.163zm-5.435-5.435v2.581h-5.163V70.92h5.163zm-10.87 0v2.581h-5.163V70.92h5.163zM38.042 84.369v2.582h-5.164v-5.164h5.163v2.582Zm-5.435-5.432v2.581h-5.164v-5.163h5.164zm201.074 5.432v2.582h-5.163v-5.164h5.163zm-5.435-5.432v2.581h-5.163v-5.163h5.163zm-16.304 5.432v2.582h-5.164v-5.164h5.164zm-5.435-5.432v2.581h-5.163v-5.163h5.163zm-5.432-5.435v2.581h-5.164V70.92h5.164zm-10.87 0v2.581h-5.163V70.92h5.163zm-21.737 10.867v2.582h-5.163v-5.164h5.163zm-5.435-5.432v2.581h-5.163v-5.163h5.163zm-5.435-5.435v2.581h-5.163V70.92h5.163zm-10.87 0v2.581h-5.163V70.92h5.163zm-21.736 10.867v2.582h-5.164v-5.164h5.164zm-5.435-5.432v2.581h-5.164v-5.163h5.164zm-5.435-5.435v2.581h-5.163V70.92h5.163zm-10.867 0v2.581h-5.163V70.92h5.163zM76.083 89.804v2.582H70.92v-5.164h5.163zm-16.305-5.435v2.582h-5.163v-5.164h5.163zm-27.171 5.435v2.582h-5.164v-5.164h5.164zm-16.03 10.87v-2.582h5.162v5.164h-5.163v-2.582Zm211.669-10.87v2.582h-5.163v-5.164h5.163zm-21.739 0v2.582h-5.163v-5.164h5.163zm-16.302-5.435v2.582h-5.163v-5.164h5.163zm-27.172 5.435v2.582h-5.163v-5.164h5.163zm-16.305-5.435v2.582h-5.163v-5.164h5.163zm-27.171 5.435v2.582h-5.164v-5.164h5.164zm-16.302-5.435v2.582h-5.163v-5.164h5.163zm-76.083 10.87v2.582h-5.163v-5.164h5.163zm198.493 2.853h2.581v5.164h-5.163v-5.164zm-122.139 2.582v-2.582h5.164v5.164h-5.164zm10.867 0v-2.582h5.164v5.164h-5.164zm21.74 0v-2.582h5.163v5.164h-5.163zm10.867 0v-2.582h5.163v5.164H147zm10.87 0v-2.582h5.163v5.164h-5.163zm21.737 0v-2.582h5.163v5.164h-5.163zm10.869 0v-2.582h5.164v5.164h-5.164zm10.87 0v-2.582h5.164v5.164h-5.164zm-173.903 0v-2.582h5.164v5.164h-5.164zm21.74 0v-2.582h5.163v5.164h-5.163zm10.867 0v-2.582h5.163v5.164H60.05zm10.87 0v-2.582h5.163v5.164H70.92zm21.737 0v-2.582h5.163v5.164h-5.163zm10.869-10.87v-2.582h5.164v5.164h-5.164zm21.737 10.87v-2.582h5.163v5.164h-5.163zm10.87-10.87v-2.582h5.163v5.164h-5.163zm10.867 0v-2.582h5.163v5.164H147zm21.74 10.87v-2.582h5.163v5.164h-5.163zm10.867-10.87v-2.582h5.163v5.164h-5.163zm10.869 0v-2.582h5.164v5.164h-5.164zm21.737 10.87v-2.582h5.164v5.164h-5.164zm-173.9 0v-2.582h5.163v5.164h-5.163zm10.87-10.87v-2.582h5.163v5.164h-5.163zm10.867 0v-2.582h5.163v5.164H60.05zm21.737 10.87v-2.582h5.163v5.164h-5.163zm10.87-10.87v-2.582h5.163v5.164h-5.163zm10.869-10.867v-2.582h5.164v5.163h-5.164zm21.737 10.867v-2.582h5.163v5.164h-5.163zm10.87-10.867v-2.582h5.163v5.163h-5.163zm10.867 0v-2.582h5.163v5.163H147zm21.74 10.867v-2.582h5.163v5.164h-5.163zm10.867-10.867v-2.582h5.163v5.163h-5.163zm10.869 0v-2.582h5.164v5.163h-5.164zm21.737 10.867v-2.582h5.164v5.164h-5.164zm-195.637 0v-2.582h5.163v5.164h-5.163zm21.737 0v-2.582h5.163v5.164h-5.163zm10.87-10.867v-2.582h5.163v5.163h-5.163zm10.867 0v-2.582h5.163v5.163H60.05zm21.737 10.867v-2.582h5.163v5.164h-5.163zm10.87-10.867v-2.582h5.163v5.163h-5.163zm21.736-10.87v-2.582h5.164v5.163h-5.164zm5.435 5.435V70.92h5.164v5.163h-5.164zm5.435 5.435v-2.582h5.163v5.163h-5.163zm5.435-5.435V70.92h5.163v5.163h-5.163zm5.435-5.435v-2.582h5.163v5.163h-5.163zm21.737 0v-2.582h5.163v5.163h-5.163zm5.435 5.435V70.92h5.163v5.163h-5.163zm5.435 5.435v-2.582h5.163v5.163h-5.163zm5.434-5.435V70.92h5.164v5.163h-5.164zm5.433-5.435v-2.582h5.163v5.163h-5.163zm21.739 0v-2.582h5.164v5.163h-5.164zm5.435 5.435V70.92h5.163v5.163h-5.163zm5.432 5.435v-2.582h5.164v5.163h-5.164zm5.435-5.435V70.92h5.163v5.163h-5.163zm5.435-5.435v-2.582h5.163v5.163h-5.163zm5.435 5.435V70.92h5.163v5.163h-5.163zm8.016 13.72h2.582v5.164h-5.163v-5.164zM8.288 103.256H5.706v-5.164h5.164v5.164zm2.582-13.452v2.582H5.706v-5.164h5.164zm.271-5.435v-2.582h5.164v5.164H11.14zm5.435-5.432v-2.582h5.163v5.163h-5.163zm5.433-5.435V70.92h5.163v5.163h-5.163zm5.434-5.435v-2.582h5.164v5.163h-5.164zm5.435 5.435V70.92h5.163v5.163h-5.163zm5.435 5.435v-2.582h5.163v5.163h-5.163zm5.435-5.435V70.92h5.163v5.163h-5.163zm5.435-5.435v-2.582h5.163v5.163h-5.163zm21.737 0v-2.582h5.163v5.163H70.92zm5.435 5.435V70.92h5.163v5.163h-5.163zm5.432 5.435v-2.582h5.163v5.163h-5.163zm5.435-5.435V70.92h5.163v5.163h-5.163zm5.435-5.435v-2.582h5.163v5.163h-5.163zM5.707 49.183H0v-5.706h5.706z"/><path d="M27.443 49.183h-5.707v-5.706h5.707zm21.74 0h-5.706v-5.706h5.706zm32.604 0h-5.704v-5.706h5.703zm5.163-5.706h5.707v5.706H86.95zm38.313 5.706h-5.706v-5.706h5.706zm10.87 0h-5.707v-5.706h5.707zm32.606 0h-5.706v-5.706h5.706zm10.868 0h-5.704v-5.706h5.704zm32.607 0h-5.707v-5.706h5.707zm10.869 0h-5.707v-5.706h5.707zm10.87 0h-5.707v-5.706h5.707zM38.313 38.311h-5.707v-5.706h5.707zm21.737 0h-5.706v-5.706h5.706zm10.87 0h-5.707v-5.706h5.707zm5.163-5.706h5.703v5.706h-5.703zm10.867 0h5.707v5.706H86.95zm10.87 0h5.706v5.706H97.82zm16.573 5.706h-5.704v-5.706h5.704zm10.87 0h-5.706v-5.706h5.706zm10.87 0h-5.707v-5.706h5.707zm10.867 0h-5.704v-5.706H147zm10.87 0h-5.706v-5.706h5.706zm10.869 0h-5.706v-5.706h5.706zm10.868 0h-5.704v-5.706h5.704zm10.87 0h-5.707v-5.706h5.707zm10.869 0h-5.706v-5.706h5.706zm10.868 0h-5.707v-5.706h5.707zm10.869 0h-5.707v-5.706h5.707zm10.87 0h-5.707v-5.706h5.707zM5.707 27.445H0v-5.707h5.706zm16.029-5.707h5.707v5.707h-5.707zm21.741 0h5.706v5.707h-5.706zm21.736 0h5.707v5.707h-5.707zm21.737 0h5.707v5.707H86.95zm27.443 5.707h-5.704v-5.707h5.704zm21.74 0h-5.707v-5.707h5.707zm21.737 0h-5.706v-5.707h5.706zm21.737 0h-5.704v-5.707h5.704zm21.739 0h-5.706v-5.707h5.706zm21.737 0h-5.707v-5.707h5.707zM103.526 16.574H97.82v-5.706h5.706zm16.031-5.706h5.706v5.706h-5.706zm16.576 5.706h-5.707v-5.706h5.707zm16.031-5.706h5.706v5.706h-5.706zm16.575 5.706h-5.706v-5.706h5.706zm5.164-5.706h5.704v5.706h-5.704zm16.574 5.706h-5.707v-5.706h5.707zm5.163-5.706h5.706v5.706h-5.706zm27.443 5.706h-5.707v-5.706h5.707zm5.163-5.706h5.707v5.706h-5.707zM65.213-.001h5.707v5.706h-5.707V0Zm21.737 0h5.707v5.706H86.95V0Zm21.739 0h5.704v5.706h-5.704V0Zm21.737 0h5.707v5.706h-5.707V0Zm10.87 0H147v5.706h-5.704V0Zm21.737 0h5.706v5.706h-5.706V0Zm21.737 0h5.707v5.706h-5.707V0Zm21.737 0h5.707v5.706h-5.707V0Zm10.869 0h5.707v5.706h-5.707V0Z"/></g><g fill="#C8E1DD" clip-path="url(#b)"><path d="M388.353 59.779h2.581v-5.435h5.707v5.706h-5.435v5.163h5.435v5.436h5.163v-5.436h5.435V60.05h-5.435v-5.706h5.706v5.434h5.164v-5.434h5.435V49.18h-5.435v-5.706h5.706v5.435h5.164v-5.435h5.706v5.706h-5.435v5.164h5.435v5.434h5.163v-5.434h5.707v5.706h-5.435v5.163h5.435v5.436h5.163v-5.436h5.435V60.05h-5.435v-5.706h5.707v5.434h5.163v-5.434h5.706v5.706h-5.435v5.163h5.435v5.436h5.164v-5.436h5.435V60.05h-5.435v-5.706h5.706v5.434h5.163v-5.434h5.699v5.706h-5.435v5.163h5.435v5.707h-5.707v-5.435h-5.163v5.435h-5.435v5.163h5.435v5.435h5.163v-5.435h5.707v5.707h-5.435v5.163h5.435v5.707h-5.435v5.163h5.435v87.223h-244.82V97.823h5.435V92.66h-5.435V76.083h5.435V70.92h-5.435v-5.707h5.706v5.436h5.164v-5.436h5.435V60.05h-5.435v-5.706h5.706v5.434h5.163v-5.434h5.707v5.706h-5.435v5.163h5.435v5.436h5.163v-5.436h5.435V60.05h-5.435v-5.706h5.707v5.434h5.163v-5.434h5.435V49.18h-5.435v-5.706h5.706v5.435h5.164v-5.435h5.706v5.706h-5.435v5.164h5.435v5.434h5.164v-5.434h5.706v5.706h-5.435v5.163h5.435v5.436h5.163v-5.436h5.435V60.05h-5.435v-5.706h5.707v5.434h5.163v-5.434h5.435V49.18h-5.435v-5.706h5.707v5.435h5.163v-5.435h5.706v5.706h-5.435v5.164h5.435v5.434h5.164v-5.434h5.706v5.706h-5.435v5.163h5.435v5.436h5.163v-5.436h5.435V60.05h-5.435v-5.706h5.707v5.434h5.163v-5.434h5.435V49.18h-5.435v-5.706h5.707v5.435h5.163v-5.435h5.706v5.706h-5.434v5.164h5.434v5.434h2.582-.013Zm30.025-2.445v2.716h-5.435v5.163h5.435v5.436h5.163v-5.436h5.435V60.05h-5.435v-5.435h-5.163zm-173.901 43.34v2.582h5.164v-5.164h-5.164zm0-21.737v2.581h5.164v-5.163h-5.164zm43.474-21.603v2.716h-5.435v5.163h5.435v5.436h5.163v-5.436h5.435V60.05h-5.435v-5.435h-5.163zm43.476 0v2.716h-5.434v5.163h5.434v5.436h5.164v-5.436h5.435V60.05h-5.435v-5.435h-5.164zm43.474 0v2.716h-5.435v5.163h5.435v5.436h5.163v-5.436h5.435V60.05h-5.435v-5.435h-5.163zm27.175 27.035v2.582h5.163v-5.164h-5.163zm5.432-5.432v2.581h5.163v-5.163h-5.163zm5.435-5.435v2.581h5.163V70.92h-5.163zm10.869 0v2.581h5.164V70.92h-5.164zm21.737 10.867v2.582h5.164v-5.164h-5.164zm5.435-5.432v2.581h5.163v-5.163h-5.163zM249.91 84.369v2.582h5.163v-5.164h-5.163zm5.434-5.432v2.581h5.164v-5.163h-5.164zm16.305 5.432v2.582h5.163v-5.164h-5.163zm5.435-5.432v2.581h5.163v-5.163h-5.163zm5.432-5.435v2.581h5.163V70.92h-5.163zm10.87 0v2.581h5.163V70.92h-5.163zm21.737 10.867v2.582h5.163v-5.164h-5.163zm5.435-5.432v2.581h5.163v-5.163h-5.163zm5.435-5.435v2.581h5.163V70.92h-5.163zm10.869 0v2.581h5.164V70.92h-5.164zm21.737 10.867v2.582h5.163v-5.164h-5.163zm5.435-5.432v2.581h5.163v-5.163h-5.163zm5.435-5.435v2.581h5.163V70.92h-5.163zm10.867 0v2.581h5.163V70.92h-5.163zm27.172 16.302v2.582h5.163v-5.164h-5.163zm16.304-5.435v2.582h5.164v-5.164h-5.164zm27.172 5.435v2.582h5.163v-5.164h-5.163zm16.031 10.87v-2.582h-5.164v5.164h5.164zm-211.671-10.87v2.582h5.164v-5.164h-5.164zm21.74 0v2.582h5.163v-5.164h-5.163zm16.302-5.435v2.582h5.163v-5.164h-5.163zm27.172 5.435v2.582h5.163v-5.164h-5.163zm16.304-5.435v2.582h5.164v-5.164h-5.164zm27.172 5.435v2.582h5.163v-5.164h-5.163zm16.302-5.435v2.582h5.163v-5.164h-5.163zm76.083 10.87v2.582h5.163v-5.164h-5.163zm-198.493 2.853h-2.582v5.164h5.164v-5.164zm122.138 2.582v-2.582h-5.163v5.164h5.163zm-10.867 0v-2.582h-5.163v5.164h5.163zm-21.739 0v-2.582h-5.163v5.164h5.163zm-10.867 0v-2.582h-5.164v5.164h5.164zm-10.87 0v-2.582h-5.163v5.164h5.163zm-21.737 0v-2.582h-5.163v5.164h5.163zm-10.87 0v-2.582h-5.163v5.164h5.163zm-10.869 0v-2.582h-5.164v5.164h5.164zm173.902 0v-2.582h-5.163v5.164h5.163zm-21.739 0v-2.582h-5.163v5.164h5.163zm-10.867 0v-2.582h-5.163v5.164h5.163zm-10.87 0v-2.582h-5.163v5.164h5.163zm-21.737 0v-2.582h-5.163v5.164h5.163zm-10.87-10.87v-2.582h-5.163v5.164h5.163zm-21.736 10.87v-2.582h-5.164v5.164h5.164zm-10.87-10.87v-2.582h-5.163v5.164h5.163zm-10.867 0v-2.582h-5.164v5.164h5.164zm-21.74 10.87v-2.582h-5.163v5.164h5.163zm-10.867-10.87v-2.582h-5.163v5.164h5.163zm-10.87 0v-2.582h-5.163v5.164h5.163zm-21.736 10.87v-2.582h-5.164v5.164h5.164zm173.9 0v-2.582h-5.164v5.164h5.164zm-10.87-10.87v-2.582h-5.163v5.164h5.163zm-10.867 0v-2.582h-5.163v5.164h5.163zm-21.737 10.87v-2.582h-5.163v5.164h5.163zm-10.87-10.87v-2.582h-5.163v5.164h5.163zm-10.87-10.867v-2.582h-5.163v5.163h5.163zm-21.736 10.867v-2.582h-5.164v5.164h5.164zm-10.87-10.867v-2.582h-5.163v5.163h5.163zm-10.867 0v-2.582h-5.164v5.163h5.164zm-21.74 10.867v-2.582h-5.163v5.164h5.163zm-10.867-10.867v-2.582h-5.163v5.163h5.163zm-10.87 0v-2.582h-5.163v5.163h5.163zm-21.736 10.867v-2.582h-5.164v5.164h5.164zm195.637 0v-2.582h-5.164v5.164h5.164zm-21.737 0v-2.582h-5.164v5.164h5.164zm-10.87-10.867v-2.582h-5.163v5.163h5.163zm-10.867 0v-2.582h-5.163v5.163h5.163zm-21.737 10.867v-2.582h-5.163v5.164h5.163zm-10.87-10.867v-2.582h-5.163v5.163h5.163zm-21.737-10.87v-2.582h-5.163v5.163h5.163zm-5.435 5.435V70.92h-5.163v5.163h5.163zm-5.434 5.435v-2.582h-5.164v5.163h5.164zm-5.435-5.435V70.92h-5.164v5.163h5.164zm-5.435-5.435v-2.582h-5.163v5.163h5.163zm-21.737 0v-2.582h-5.163v5.163h5.163zm-5.435 5.435V70.92h-5.163v5.163h5.163zm-5.435 5.435v-2.582h-5.163v5.163h5.163zm-5.435-5.435V70.92h-5.163v5.163h5.163zm-5.432-5.435v-2.582h-5.163v5.163h5.163zm-21.739 0v-2.582h-5.164v5.163h5.164zm-5.435 5.435V70.92h-5.164v5.163h5.164zm-5.432 5.435v-2.582h-5.164v5.163h5.164zm-5.435-5.435V70.92h-5.164v5.163h5.164zm-5.435-5.435v-2.582h-5.164v5.163h5.164zm-5.435 5.435V70.92h-5.163v5.163h5.163zm-8.017 13.72h-2.581v5.164h5.163v-5.164zm228.247 16.034h2.581v-5.164h-5.163v5.164zm-2.582-13.452v2.582h5.163v-5.164h-5.163zm-.272-5.435v-2.582h-5.163v5.164h5.163zm-5.434-5.432v-2.582h-5.164v5.163h5.164zm-5.433-5.435V70.92h-5.163v5.163h5.163zm-5.435-5.435v-2.582h-5.163v5.163h5.163zm-5.434 5.435V70.92h-5.164v5.163h5.164zm-5.435 5.435v-2.582h-5.164v5.163h5.164zm-5.435-5.435V70.92h-5.163v5.163h5.163zm-5.435-5.435v-2.582h-5.163v5.163h5.163zm-21.737 0v-2.582h-5.163v5.163h5.163zm-5.435 5.435V70.92h-5.163v5.163h5.163zm-5.432 5.435v-2.582h-5.163v5.163h5.163zm-5.435-5.435V70.92h-5.163v5.163h5.163zm-5.435-5.435v-2.582h-5.163v5.163h5.163z"/><path d="M238.771 60.05h5.707v-5.708h-5.707v5.706Zm217.377-10.867h5.706v-5.706h-5.706zm-21.74 0h5.707v-5.706h-5.707zm-32.604 0h5.704v-5.706h-5.704zm-5.163-5.706h-5.706v5.706h5.706zm-38.313 5.706h5.707v-5.706h-5.707zm-10.87 0h5.707v-5.706h-5.707zm-32.607 0h5.707v-5.706h-5.707zm-10.867 0h5.704v-5.706h-5.704zm-32.607 0h5.707v-5.706h-5.707zm-10.87 0h5.707v-5.706h-5.707zm-10.869 0h5.707v-5.706h-5.707zm-10.867 0h5.707v-5.706h-5.707zm206.507-10.872h5.706v-5.706h-5.706zm-21.737 0h5.707v-5.706h-5.707zm-10.87 0h5.707v-5.706h-5.707zm-5.163-5.706h-5.704v5.706h5.704zm-10.867 0h-5.706v5.706h5.706zm-10.87 0h-5.706v5.706h5.706zm-16.573 5.706h5.703v-5.706h-5.703zm-10.87 0h5.707v-5.706h-5.707zm-10.87 0h5.707v-5.706h-5.707zm-10.868 0h5.704v-5.706h-5.704zm-10.869 0h5.707v-5.706h-5.707zm-10.87 0h5.707v-5.706h-5.707zm-10.867 0h5.704v-5.706h-5.704zm-10.869 0h5.706v-5.706h-5.706zm-10.87 0h5.706v-5.706h-5.706zm-10.868 0h5.707v-5.706h-5.707zm-10.87 0h5.707v-5.706h-5.707zm-10.869 0h5.707v-5.706h-5.707zm212.216-16.573h-5.706v5.707h5.706zm-21.739 0h-5.707v5.707h5.707zm-21.737 0h-5.707v5.707h5.707zm-21.737 0h-5.706v5.707h5.706zm-27.443 5.707h5.703v-5.707h-5.703zm-21.74 0h5.707v-5.707h-5.707zm-21.737 0h5.707v-5.707h-5.707zm-21.737 0h5.704v-5.707h-5.704zm-21.739 0h5.706v-5.707h-5.706zm-21.738 0h5.707v-5.707h-5.707zm-21.736 0h5.707v-5.707h-5.707zm141.294-10.871h5.706v-5.706h-5.706zm-16.03-5.706h-5.707v5.706h5.707zm-16.577 5.706h5.707v-5.706h-5.707zm-16.03-5.706h-5.707v5.706h5.707zm-16.577 5.706h5.707v-5.706h-5.707zm-5.163-5.706h-5.704v5.706h5.704zm-16.573 5.706h5.706v-5.706h-5.706zm-5.164-5.706h-5.706v5.706h5.706zm-27.444 5.706h5.707v-5.706h-5.707zm-5.162-5.706h-5.707v5.706h5.707zM418.378-.001h-5.707v5.706h5.707V0Zm-21.737 0h-5.706v5.706h5.706V0Zm-21.74 0h-5.703v5.706h5.703V0Zm-21.736 0h-5.707v5.706h5.707V0Zm-10.871 0h-5.704v5.706h5.704V0Zm-21.736 0h-5.707v5.706h5.707V0Zm-21.737 0h-5.706v5.706h5.706V0Zm-21.737 0h-5.707v5.706h5.707V0Zm-10.87 0h-5.707v5.706h5.707V0Zm-21.736 0h-5.707v5.706h5.707V0Z"/></g><g fill="#C8E1DD" clip-path="url(#c)"><path d="M573.111 59.778h-2.581v-5.435h-5.707v5.707h5.435v5.163h-5.435v5.435h-5.163v-5.435h-5.435V60.05h5.435v-5.707h-5.707v5.435h-5.163v-5.435h-5.435V49.18h5.435v-5.707h-5.706v5.435h-5.164v-5.435h-5.706v5.707h5.435v5.163h-5.435v5.435h-5.163v-5.435h-5.707v5.707h5.435v5.163h-5.435v5.435h-5.163v-5.435h-5.435V60.05h5.435v-5.707h-5.707v5.435h-5.163v-5.435h-5.706v5.707h5.434v5.163h-5.434v5.435h-5.164v-5.435h-5.435V60.05h5.435v-5.707h-5.706v5.435h-5.164v-5.435h-5.698v5.707h5.435v5.163h-5.435v5.707h5.707v-5.435h5.163v5.435h5.435v5.163h-5.435v5.435h-5.163v-5.435h-5.707v5.707h5.435v5.163h-5.435v5.706h5.435v5.164h-5.435v87.223h244.82V97.823h-5.435V92.66h5.435V76.082h-5.435V70.92h5.435v-5.707h-5.707v5.435h-5.163v-5.435h-5.435V60.05h5.435v-5.707h-5.706v5.435h-5.164v-5.435h-5.706v5.707h5.435v5.163h-5.435v5.435h-5.163v-5.435h-5.435V60.05h5.435v-5.707h-5.707v5.435h-5.163v-5.435h-5.435V49.18h5.435v-5.707h-5.707v5.435h-5.163v-5.435h-5.706v5.707h5.435v5.163h-5.435v5.435h-5.164v-5.435h-5.706v5.707h5.435v5.163h-5.435v5.435h-5.163v-5.435h-5.435V60.05h5.435v-5.707h-5.707v5.435h-5.163v-5.435H630.3V49.18h5.435v-5.707h-5.707v5.435h-5.163v-5.435h-5.706v5.707h5.434v5.163h-5.434v5.435h-5.164v-5.435h-5.706v5.707h5.435v5.163h-5.435v5.435h-5.163v-5.435h-5.435V60.05h5.435v-5.707h-5.707v5.435h-5.163v-5.435h-5.435V49.18h5.435v-5.707h-5.707v5.435h-5.163v-5.435h-5.707v5.707h5.435v5.163h-5.435v5.435h-2.581zm-30.025-2.444v2.716h5.435v5.163h-5.435v5.435h-5.163v-5.435h-5.435V60.05h5.435v-5.435h5.163v2.718Zm173.9 43.339v2.582h-5.163v-5.163h5.163zm0-21.737v2.582h-5.163v-5.163h5.163zm-43.473-21.603v2.717h5.435v5.163h-5.435v5.435h-5.163v-5.435h-5.435V60.05h5.435v-5.435h5.163zm-43.477 0v2.717h5.435v5.163h-5.435v5.435h-5.163v-5.435h-5.435V60.05h5.435v-5.435h5.163zm-43.473 0v2.717h5.435v5.163h-5.435v5.435h-5.164v-5.435h-5.434V60.05h5.434v-5.435h5.164zm-27.175 27.035v2.582h-5.163v-5.163h5.163zm-5.432-5.432v2.582h-5.163v-5.163h5.163zm-5.435-5.435v2.582h-5.163V70.92h5.163v2.58Zm-10.87 0v2.582h-5.163V70.92h5.163v2.58Zm-21.736 10.867v2.582h-5.164v-5.163h5.164zm-5.435-5.432v2.582h-5.164v-5.163h5.164zm201.074 5.432v2.582h-5.163v-5.163h5.163zm-5.435-5.432v2.582h-5.163v-5.163h5.163zm-16.304 5.432v2.582h-5.164v-5.163h5.164zm-5.435-5.432v2.582h-5.163v-5.163h5.163zm-5.432-5.435v2.582h-5.164V70.92h5.164v2.58Zm-10.87 0v2.582h-5.163V70.92h5.163v2.58Zm-21.737 10.867v2.582h-5.163v-5.163h5.163zm-5.435-5.432v2.582h-5.163v-5.163h5.163zm-5.435-5.435v2.582h-5.163V70.92h5.163v2.58Zm-10.869 0v2.582h-5.164V70.92h5.164v2.58Zm-21.737 10.867v2.582h-5.164v-5.163h5.164zm-5.435-5.432v2.582h-5.164v-5.163h5.164zm-5.435-5.435v2.582h-5.163V70.92h5.163v2.58Zm-10.867 0v2.582h-5.163V70.92h5.163v2.58Zm-27.172 16.302v2.582h-5.163v-5.163h5.163zm-16.305-5.434v2.581h-5.163v-5.163h5.163zm-27.171 5.434v2.582h-5.164v-5.163h5.164zm-16.031 10.87v-2.581h5.164v5.163h-5.164zm211.67-10.87v2.582h-5.163v-5.163h5.163zm-21.739 0v2.582h-5.163v-5.163h5.163zm-16.302-5.434v2.581h-5.163v-5.163h5.163zm-27.172 5.434v2.582h-5.163v-5.163h5.163zm-16.304-5.434v2.581h-5.164v-5.163h5.164zm-27.172 5.434v2.582h-5.164v-5.163h5.164zm-16.302-5.434v2.581h-5.163v-5.163h5.163zm-76.083 10.87v2.581h-5.163v-5.163h5.163zm198.493 2.853h2.581v5.163h-5.163v-5.163zm-122.139 2.581v-2.581h5.164v5.163h-5.164zm10.867 0v-2.581h5.164v5.163h-5.164zm21.74 0v-2.581h5.163v5.163h-5.163zm10.867 0v-2.581h5.163v5.163h-5.163zm10.87 0v-2.581h5.163v5.163h-5.163zm21.737 0v-2.581h5.163v5.163h-5.163zm10.87 0v-2.581h5.163v5.163h-5.163zm10.869 0v-2.581h5.164v5.163h-5.164zm-173.903 0v-2.581h5.164v5.163h-5.164zm21.74 0v-2.581h5.163v5.163h-5.163zm10.867 0v-2.581h5.163v5.163h-5.163zm10.87 0v-2.581h5.163v5.163h-5.163zm21.737 0v-2.581h5.163v5.163h-5.163zm10.869-10.87v-2.581h5.164v5.163h-5.164zm21.737 10.87v-2.581h5.164v5.163h-5.164zm10.87-10.87v-2.581h5.163v5.163h-5.163zm10.867 0v-2.581h5.163v5.163h-5.163zm21.74 10.87v-2.581h5.163v5.163h-5.163zm10.867-10.87v-2.581h5.163v5.163h-5.163zm10.87 0v-2.581h5.163v5.163h-5.163zm21.736 10.87v-2.581h5.164v5.163h-5.164zm-173.9 0v-2.581h5.163v5.163h-5.163zm10.87-10.87v-2.581h5.163v5.163h-5.163zm10.867 0v-2.581h5.163v5.163h-5.163zm21.737 10.87v-2.581h5.163v5.163h-5.163zm10.87-10.87v-2.581h5.163v5.163h-5.163zm10.869-10.867v-2.581h5.164v5.163h-5.164zm21.737 10.867v-2.581h5.164v5.163h-5.164zm10.87-10.867v-2.581h5.163v5.163h-5.163zm10.867 0v-2.581h5.163v5.163h-5.163zm21.74 10.867v-2.581h5.163v5.163h-5.163zm10.867-10.867v-2.581h5.163v5.163h-5.163zm10.87 0v-2.581h5.163v5.163h-5.163zm21.736 10.867v-2.581h5.164v5.163h-5.164zm-195.637 0v-2.581h5.164v5.163h-5.164zm21.737 0v-2.581h5.163v5.163h-5.163zm10.87-10.867v-2.581h5.163v5.163h-5.163zm10.867 0v-2.581h5.163v5.163h-5.163zm21.737 10.867v-2.581h5.163v5.163h-5.163zm10.87-10.867v-2.581h5.163v5.163h-5.163zm21.736-10.87v-2.581h5.164v5.163h-5.164zm5.435 5.435V70.92h5.164v5.163h-5.164zm5.435 5.435v-2.581h5.164v5.163h-5.164zm5.435-5.435V70.92h5.163v5.163h-5.163zm5.435-5.435v-2.581h5.163v5.163h-5.163zm21.737 0v-2.581h5.163v5.163h-5.163zm5.435 5.435V70.92h5.163v5.163h-5.163zm5.435 5.435v-2.581h5.163v5.163h-5.163zm5.435-5.435V70.92h5.163v5.163h-5.163zm5.432-5.435v-2.581h5.163v5.163h-5.163zm21.739 0v-2.581h5.164v5.163h-5.164zm5.435 5.435V70.92h5.163v5.163h-5.163zm5.432 5.435v-2.581h5.164v5.163h-5.164zm5.435-5.435V70.92h5.164v5.163h-5.164zm5.435-5.435v-2.581h5.163v5.163h-5.163zm5.435 5.435V70.92h5.163v5.163h-5.163zm8.017 13.72h2.581v5.164h-5.163v-5.163zm-228.247 16.034h-2.581v-5.163h5.163v5.163zm2.582-13.451v2.581h-5.163v-5.163h5.163zm.271-5.436v-2.581h5.164v5.163h-5.164zm5.435-5.432v-2.581h5.164v5.163h-5.164zm5.433-5.435V70.92h5.163v5.163h-5.163zm5.434-5.435v-2.581h5.164v5.163h-5.164zm5.435 5.435V70.92h5.164v5.163h-5.164zm5.435 5.435v-2.581h5.163v5.163h-5.163zm5.435-5.435V70.92h5.163v5.163h-5.163zm5.435-5.435v-2.581h5.163v5.163h-5.163zm21.737 0v-2.581h5.163v5.163h-5.163zm5.435 5.435V70.92h5.163v5.163h-5.163zm5.432 5.435v-2.581h5.163v5.163h-5.163zm5.435-5.435V70.92h5.163v5.163h-5.163zm5.435-5.435v-2.581h5.163v5.163h-5.163z"/><path d="M722.693 60.049h-5.706v-5.707h5.706zM483.58 49.183h-5.707v-5.707h5.707zm21.736 0h-5.707v-5.707h5.707zm21.74 0h-5.706v-5.707h5.706zm32.604 0h-5.703v-5.707h5.703zm5.164-5.707h5.706v5.707h-5.706zm38.313 5.707h-5.707v-5.707h5.707zm10.87 0H608.3v-5.707h5.707zm32.606 0h-5.706v-5.707h5.706zm10.867 0h-5.704v-5.707h5.704zm32.607 0h-5.707v-5.707h5.707zm10.869 0h-5.706v-5.707h5.706zm10.87 0h-5.707v-5.707h5.707zm10.867 0h-5.706v-5.707h5.706zM516.186 38.31h-5.707v-5.706h5.707zm21.737 0h-5.706v-5.706h5.706zm10.869 0h-5.706v-5.706h5.706zm5.165-5.706h5.703v5.707h-5.703zm10.867 0h5.706v5.707h-5.706zm10.869 0h5.707v5.707h-5.707zm16.574 5.706h-5.704v-5.706h5.704zm10.87 0h-5.707v-5.706h5.707zm10.87 0H608.3v-5.706h5.707zm10.866 0h-5.704v-5.706h5.704zm10.87 0h-5.706v-5.706h5.706zm10.87 0h-5.706v-5.706h5.706zm10.867 0h-5.704v-5.706h5.704zm10.87 0h-5.707v-5.706h5.707zm10.87 0h-5.707v-5.706h5.707zm10.867 0h-5.707v-5.706h5.707zm10.869 0h-5.706v-5.706h5.706zm10.87 0h-5.707v-5.706h5.707zM483.58 27.444h-5.707v-5.706h5.707zm16.029-5.706h5.707v5.706h-5.707zm21.741 0h5.706v5.706h-5.706zm21.736 0h5.706v5.706h-5.706zm21.738 0h5.706v5.706h-5.706zm27.443 5.706h-5.704v-5.706h5.704zm21.74 0H608.3v-5.706h5.707zm21.736 0h-5.706v-5.706h5.706zm21.737 0h-5.704v-5.706h5.704zm21.74 0h-5.707v-5.706h5.707zm21.736 0h-5.706v-5.706h5.706zm21.737 0h-5.706v-5.706h5.706zM581.4 16.574h-5.707v-5.707h5.707zm16.03-5.707h5.707v5.707h-5.707zm16.577 5.707H608.3v-5.707h5.707zm16.03-5.707h5.706v5.707h-5.706zm16.576 5.707h-5.706v-5.707h5.706zm5.163-5.707h5.704v5.707h-5.704zm16.574 5.707h-5.707v-5.707h5.707zm5.163-5.707h5.707v5.707h-5.707zm27.443 5.707h-5.706v-5.707h5.706zm5.163-5.707h5.707v5.707h-5.707zM543.086-.002h5.706v5.707h-5.706zm21.738 0h5.706v5.707h-5.706zm21.739 0h5.704v5.707h-5.704zm21.737 0h5.707v5.707H608.3zm10.869 0h5.704v5.707h-5.704zm21.738 0h5.706v5.707h-5.706zm21.736 0h5.707v5.707h-5.707zm21.737 0h5.707v5.707h-5.707zm10.87 0h5.706v5.707h-5.706zm21.737 0h5.706v5.707h-5.706z"/></g><g fill="#C8E1DD" clip-path="url(#d)"><path d="M866.557 59.778h2.582v-5.435h5.706v5.707h-5.435v5.163h5.435v5.435h5.164v-5.435h5.434V60.05h-5.434v-5.707h5.706v5.435h5.163v-5.435h5.435V49.18h-5.435v-5.707h5.707v5.435h5.163v-5.435h5.707v5.707h-5.435v5.163h5.435v5.435h5.163v-5.435h5.706v5.707h-5.434v5.163h5.434v5.435h5.164v-5.435h5.435V60.05h-5.435v-5.707h5.706v5.435h5.163v-5.435h5.707v5.707h-5.435v5.163h5.435v5.435h5.163v-5.435h5.435V60.05h-5.435v-5.707h5.707v5.435h5.163v-5.435h5.698v5.707h-5.434v5.163h5.434v5.707h-5.706v-5.435h-5.163v5.435h-5.435v5.163h5.435v5.435h5.163v-5.435h5.706v5.707h-5.434v5.163h5.434v5.706h-5.434v5.164h5.434v87.223h-244.82V97.823h5.435V92.66h-5.435V76.082h5.435V70.92h-5.435v-5.707h5.707v5.435h5.163v-5.435h5.435V60.05h-5.435v-5.707h5.707v5.435h5.163v-5.435h5.707v5.707h-5.435v5.163h5.435v5.435h5.163v-5.435h5.435V60.05h-5.435v-5.707h5.706v5.435h5.164v-5.435h5.434V49.18h-5.434v-5.707h5.706v5.435h5.163v-5.435h5.707v5.707h-5.435v5.163h5.435v5.435h5.163v-5.435h5.707v5.707h-5.435v5.163h5.435v5.435h5.163v-5.435h5.435V60.05h-5.435v-5.707h5.706v5.435h5.164v-5.435h5.435V49.18h-5.435v-5.707h5.706v5.435h5.163v-5.435h5.707v5.707h-5.435v5.163h5.435v5.435h5.163v-5.435h5.707v5.707h-5.435v5.163h5.435v5.435h5.163v-5.435h5.435V60.05h-5.435v-5.707h5.706v5.435h5.164v-5.435h5.435V49.18h-5.435v-5.707h5.706v5.435h5.163v-5.435h5.707v5.707h-5.435v5.163h5.435v5.435h2.582zm30.025-2.444v2.716h-5.435v5.163h5.435v5.435h5.163v-5.435h5.435V60.05h-5.435v-5.435h-5.163v2.718Zm-173.9 43.339v2.582h5.163v-5.163h-5.163zm0-21.737v2.582h5.163v-5.163h-5.163zm43.474-21.603v2.717h-5.435v5.163h5.435v5.435h5.163v-5.435h5.435V60.05h-5.435v-5.435h-5.163zm43.476 0v2.717h-5.435v5.163h5.435v5.435h5.163v-5.435h5.435V60.05h-5.435v-5.435h-5.163zm43.474 0v2.717h-5.435v5.163h5.435v5.435h5.163v-5.435h5.435V60.05h-5.435v-5.435h-5.163zm27.174 27.035v2.582h5.163v-5.163h-5.163zm5.432-5.432v2.582h5.164v-5.163h-5.164zm5.435-5.435v2.582h5.164V70.92h-5.164v2.58Zm10.87 0v2.582h5.163V70.92h-5.163v2.58Zm21.737 10.867v2.582h5.163v-5.163h-5.163zm5.435-5.432v2.582h5.163v-5.163h-5.163zm-201.075 5.432v2.582h5.163v-5.163h-5.163zm5.435-5.432v2.582h5.163v-5.163h-5.163zm16.305 5.432v2.582h5.163v-5.163h-5.163zm5.435-5.432v2.582h5.163v-5.163h-5.163zm5.432-5.435v2.582h5.163V70.92h-5.163v2.58Zm10.87 0v2.582h5.163V70.92h-5.163v2.58Zm21.736 10.867v2.582h5.164v-5.163h-5.164zm5.435-5.432v2.582h5.164v-5.163h-5.164zm5.435-5.435v2.582h5.163V70.92h-5.163v2.58Zm10.87 0v2.582h5.163V70.92h-5.163v2.58Zm21.737 10.867v2.582h5.163v-5.163h-5.163zm5.435-5.432v2.582h5.163v-5.163h-5.163zm5.435-5.435v2.582h5.163V70.92h-5.163v2.58Zm10.867 0v2.582h5.163V70.92h-5.163v2.58Zm27.171 16.302v2.582h5.164v-5.163h-5.164zm16.305-5.434v2.581h5.163v-5.163h-5.163zm27.172 5.434v2.582h5.163v-5.163h-5.163zm16.03 10.87v-2.581h-5.163v5.163h5.163zm-211.67-10.87v2.582h5.163v-5.163h-5.163zm21.74 0v2.582h5.163v-5.163h-5.163zm16.302-5.434v2.581h5.163v-5.163h-5.163zm27.171 5.434v2.582h5.164v-5.163h-5.164zm16.305-5.434v2.581h5.163v-5.163h-5.163zm27.172 5.434v2.582h5.163v-5.163h-5.163zm16.302-5.434v2.581h5.163v-5.163h-5.163zm76.083 10.87v2.581h5.163v-5.163h-5.163zm-198.493 2.853h-2.582v5.163h5.163v-5.163zm122.138 2.581v-2.581h-5.163v5.163h5.163zm-10.867 0v-2.581h-5.163v5.163h5.163zm-21.74 0v-2.581h-5.163v5.163h5.163zm-10.867 0v-2.581h-5.163v5.163h5.163zm-10.869 0v-2.581h-5.164v5.163h5.164zm-21.737 0v-2.581h-5.164v5.163h5.164zm-10.87 0v-2.581h-5.163v5.163h5.163zm-10.87 0v-2.581h-5.163v5.163h5.163zm173.903 0v-2.581h-5.163v5.163h5.163zm-21.739 0v-2.581h-5.164v5.163h5.164zm-10.868 0v-2.581h-5.163v5.163h5.163zm-10.869 0v-2.581h-5.164v5.163h5.164zm-21.737 0v-2.581h-5.163v5.163h5.163zm-10.87-10.87v-2.581h-5.163v5.163h5.163zm-21.737 10.87v-2.581h-5.163v5.163h5.163zm-10.87-10.87v-2.581h-5.163v5.163h5.163zm-10.867 0v-2.581h-5.163v5.163h5.163zm-21.739 10.87v-2.581h-5.163v5.163h5.163zm-10.867-10.87v-2.581h-5.164v5.163h5.164zm-10.87 0v-2.581h-5.163v5.163h5.163zm-21.737 10.87v-2.581h-5.163v5.163h5.163zm173.9 0v-2.581h-5.163v5.163h5.163zm-10.869-10.87v-2.581h-5.164v5.163h5.164zm-10.868 0v-2.581h-5.163v5.163h5.163zm-21.736 10.87v-2.581h-5.164v5.163h5.164zm-10.87-10.87v-2.581h-5.163v5.163h5.163zm-10.87-10.867v-2.581h-5.163v5.163h5.163zm-21.737 10.867v-2.581h-5.163v5.163h5.163zm-10.87-10.867v-2.581h-5.163v5.163h5.163zm-10.867 0v-2.581h-5.163v5.163h5.163zm-21.739 10.867v-2.581h-5.163v5.163h5.163zm-10.867-10.867v-2.581h-5.164v5.163h5.164zm-10.87 0v-2.581h-5.163v5.163h5.163zm-21.737 10.867v-2.581h-5.163v5.163h5.163zm195.637 0v-2.581h-5.163v5.163h5.163zm-21.737 0v-2.581h-5.163v5.163h5.163zm-10.869-10.867v-2.581h-5.164v5.163h5.164zm-10.868 0v-2.581h-5.163v5.163h5.163zm-21.736 10.867v-2.581h-5.164v5.163h5.164zm-10.87-10.867v-2.581h-5.163v5.163h5.163zm-21.737-10.87v-2.581h-5.163v5.163h5.163zm-5.435 5.435V70.92h-5.163v5.163h5.163zm-5.435 5.435v-2.581h-5.163v5.163h5.163zm-5.435-5.435V70.92h-5.163v5.163h5.163zm-5.435-5.435v-2.581h-5.163v5.163h5.163zm-21.736 0v-2.581h-5.164v5.163h5.164zm-5.435 5.435V70.92h-5.164v5.163h5.164zm-5.435 5.435v-2.581h-5.163v5.163h5.163zm-5.435-5.435V70.92h-5.163v5.163h5.163zm-5.432-5.435v-2.581h-5.164v5.163h5.164zm-21.74 0v-2.581h-5.163v5.163h5.163zm-5.435 5.435V70.92h-5.163v5.163h5.163zm-5.432 5.435v-2.581h-5.163v5.163h5.163zm-5.435-5.435V70.92h-5.163v5.163h5.163zm-5.435-5.435v-2.581h-5.163v5.163h5.163zm-5.435 5.435V70.92h-5.163v5.163h5.163zm-8.016 13.72h-2.582v5.164h5.164v-5.163zm228.246 16.034h2.582v-5.163h-5.163v5.163zm-2.581-13.451v2.581h5.163v-5.163h-5.163zm-.272-5.436v-2.581h-5.163v5.163h5.163zm-5.435-5.432v-2.581h-5.163v5.163h5.163zm-5.432-5.435V70.92h-5.163v5.163h5.163zm-5.435-5.435v-2.581h-5.163v5.163h5.163zm-5.435 5.435V70.92h-5.163v5.163h5.163zm-5.435 5.435v-2.581h-5.163v5.163h5.163zm-5.435-5.435V70.92h-5.163v5.163h5.163zm-5.434-5.435v-2.581h-5.164v5.163h5.164zm-21.737 0v-2.581h-5.164v5.163h5.164zm-5.435 5.435V70.92h-5.163v5.163h5.163zm-5.432 5.435v-2.581h-5.164v5.163h5.164zm-5.435-5.435V70.92h-5.164v5.163h5.164zm-5.435-5.435v-2.581h-5.163v5.163h5.163zm86.95-18.883h5.706v-5.707h-5.706z"/><path d="M934.353 49.183h5.706v-5.707h-5.706zm-21.74 0h5.707v-5.707h-5.707zm-32.603 0h5.703v-5.707h-5.703zm-5.165-5.707h-5.706v5.707h5.706zm-38.313 5.707h5.707v-5.707h-5.707zm-10.869 0h5.706v-5.707h-5.706zm-32.607 0h5.707v-5.707h-5.707zm-10.867 0h5.704v-5.707h-5.704zm-32.606 0h5.706v-5.707h-5.706zm-10.871 0h5.707v-5.707h-5.707zm-10.869 0h5.707v-5.707h-5.707zM923.482 38.31h5.707v-5.706h-5.707zm-21.737 0h5.707v-5.706h-5.707zm-10.869 0h5.707v-5.706h-5.707zm-5.163-5.706h-5.703v5.707h5.703zm-10.868 0h-5.706v5.707h5.706zm-10.869 0h-5.707v5.707h5.707zm-16.573 5.706h5.703v-5.706h-5.703zm-10.871 0h5.707v-5.706h-5.707zm-10.869 0h5.706v-5.706h-5.706zm-10.868 0h5.704v-5.706h-5.704zm-10.869 0h5.707v-5.706h-5.707zm-10.87 0h5.707v-5.706h-5.707zm-10.867 0h5.704v-5.706h-5.704zm-10.869 0h5.706v-5.706h-5.706zm-10.87 0h5.706v-5.706h-5.706zm-10.867 0h5.706v-5.706h-5.706zm-10.871 0h5.707v-5.706h-5.707zm-10.869 0h5.707v-5.706h-5.707zm228.246-10.866h5.706v-5.706h-5.706zm-16.03-5.706h-5.706v5.706h5.706zm-21.739 0h-5.707v5.706h5.707zm-21.737 0h-5.707v5.706h5.707zm-21.738 0h-5.706v5.706h5.706zm-27.442 5.706h5.703v-5.706h-5.703zm-21.74 0h5.706v-5.706h-5.706zm-21.737 0h5.707v-5.706h-5.707zm-21.737 0h5.704v-5.706h-5.704zm-21.739 0h5.706v-5.706h-5.706zm-21.738 0h5.707v-5.706h-5.707zm119.557-10.87h5.707v-5.707h-5.707zm-16.03-5.707h-5.707v5.707h5.707zm-16.576 5.707h5.706v-5.707h-5.706zm-16.03-5.707h-5.707v5.707h5.707zm-16.577 5.707h5.707v-5.707h-5.707zm-5.163-5.707h-5.704v5.707h5.704zm-16.573 5.707h5.706v-5.707h-5.706zm-5.164-5.707h-5.706v5.707h5.706zm-27.444 5.707h5.707v-5.707h-5.707zm-5.162-5.707h-5.707v5.707h5.707zM896.583-.002h-5.707v5.707h5.707zm-21.738 0h-5.706v5.707h5.706zm-21.739 0h-5.703v5.707h5.703zm-21.737 0h-5.706v5.707h5.706zm-10.87 0h-5.704v5.707h5.704zm-21.736 0h-5.707v5.707h5.707zm-21.737 0h-5.706v5.707h5.706zm-21.737 0h-5.706v5.707h5.706zm-10.87 0h-5.707v5.707h5.707z"/></g><g fill="#C8E1DD" clip-path="url(#e)"><path d="M1105.66 59.778h2.58v-5.435h5.71v5.707h-5.44v5.163h5.44v5.435h5.16v-5.435h5.44V60.05h-5.44v-5.707h5.71v5.435h5.16v-5.435h5.44V49.18h-5.44v-5.707h5.71v5.435h5.16v-5.435h5.71v5.707h-5.44v5.163h5.44v5.435h5.16v-5.435h5.71v5.707h-5.44v5.163h5.44v5.435h5.16v-5.435h5.44V60.05h-5.44v-5.707h5.71v5.435h5.16v-5.435h5.71v5.707h-5.44v5.163h5.44v5.435h5.16v-5.435h5.43V60.05h-5.43v-5.707h5.71v5.435h5.16v-5.435h5.7v5.707h-5.44v5.163h5.44v5.707h-5.71v-5.435h-5.16v5.435h-5.44v5.163h5.44v5.435h5.16v-5.435h5.71v5.707h-5.44v5.163h5.44v5.706h-5.44v5.164h5.44v87.223H956.078V97.823h5.435V92.66h-5.435V76.082h5.435V70.92h-5.435v-5.707h5.707v5.435h5.163v-5.435h5.435V60.05h-5.435v-5.707h5.706v5.435h5.164v-5.435h5.706v5.707h-5.435v5.163h5.435v5.435h5.163v-5.435h5.435V60.05h-5.435v-5.707h5.707v5.435h5.163v-5.435h5.433V49.18h-5.433v-5.707h5.703v5.435h5.17v-5.435h5.7v5.707h-5.43v5.163h5.43v5.435h5.17v-5.435h5.7v5.707h-5.43v5.163h5.43v5.435h5.17v-5.435h5.43V60.05h-5.43v-5.707h5.7v5.435h5.17v-5.435h5.43V49.18h-5.43v-5.707h5.7v5.435h5.17v-5.435h5.7v5.707h-5.43v5.163h5.43v5.435h5.17v-5.435h5.7v5.707h-5.43v5.163h5.43v5.435h5.17v-5.435h5.43V60.05h-5.43v-5.707h5.7v5.435h5.17v-5.435h5.43V49.18h-5.43v-5.707h5.7v5.435h5.17v-5.435h5.7v5.707h-5.43v5.163h5.43v5.435h2.58zm30.02-2.444v2.716h-5.43v5.163h5.43v5.435h5.17v-5.435h5.43V60.05h-5.43v-5.435h-5.17v2.718Zm-173.895 43.339v2.582h5.163v-5.163h-5.163zm0-21.737v2.582h5.163v-5.163h-5.163zm43.475-21.603v2.717h-5.437v5.163h5.437v5.435h5.16v-5.435h5.44V60.05h-5.44v-5.435h-5.16zm43.47 0v2.717h-5.43v5.163h5.43v5.435h5.17v-5.435h5.43V60.05h-5.43v-5.435h-5.17zm43.48 0v2.717h-5.44v5.163h5.44v5.435h5.16v-5.435h5.44V60.05h-5.44v-5.435h-5.16zm27.17 27.035v2.582h5.17v-5.163h-5.17zm5.43-5.432v2.582h5.17v-5.163h-5.17zm5.44-5.435v2.582h5.16V70.92h-5.16v2.58Zm10.87 0v2.582h5.16V70.92h-5.16v2.58Zm21.74 10.867v2.582h5.16v-5.163h-5.16zm5.43-5.432v2.582h5.16v-5.163h-5.16zm-201.073 5.432v2.582h5.163v-5.163h-5.163zm5.435-5.432v2.582h5.163v-5.163h-5.163zm16.304 5.432v2.582h5.164v-5.163h-5.164zm5.435-5.432v2.582h5.163v-5.163h-5.163zm5.432-5.435v2.582h5.167V70.92h-5.167v2.58Zm10.867 0v2.582h5.17V70.92h-5.17v2.58Zm21.74 10.867v2.582h5.16v-5.163h-5.16zm5.43-5.432v2.582h5.17v-5.163h-5.17zm5.44-5.435v2.582h5.16V70.92h-5.16v2.58Zm10.87 0v2.582h5.16V70.92h-5.16v2.58Zm21.74 10.867v2.582h5.16v-5.163h-5.16zm5.43-5.432v2.582h5.16v-5.163h-5.16zm5.44-5.435v2.582h5.16V70.92h-5.16v2.58Zm10.86 0v2.582h5.17V70.92h-5.17v2.58Zm27.17 16.302v2.582h5.17v-5.163h-5.17zm16.31-5.434v2.581h5.16v-5.163h-5.16zm27.17 5.434v2.582h5.16v-5.163h-5.16zm16.03 10.87v-2.581h-5.16v5.163h5.16zm-211.668-10.87v2.582h5.163v-5.163h-5.163zm21.739 0v2.582h5.163v-5.163h-5.163zm16.299-5.434v2.581h5.17v-5.163h-5.17zm27.17 5.434v2.582h5.17v-5.163h-5.17zm16.31-5.434v2.581h5.16v-5.163h-5.16zm27.17 5.434v2.582h5.16v-5.163h-5.16zm16.3-5.434v2.581h5.17v-5.163h-5.17zm76.09 10.87v2.581h5.16v-5.163h-5.16zm-198.497 2.853h-2.581v5.163h5.163v-5.163zm122.137 2.581v-2.581h-5.16v5.163h5.16zm-10.87 0v-2.581h-5.16v5.163h5.16zm-21.74 0v-2.581h-5.16v5.163h5.16zm-10.86 0v-2.581h-5.17v5.163h5.17zm-10.87 0v-2.581h-5.17v5.163h5.17zm-21.74 0v-2.581h-5.16v5.163h5.16zm-10.87 0v-2.581h-5.16v5.163h5.16zm-10.868 0v-2.581h-5.164v5.163h5.164zm173.898 0v-2.581h-5.16v5.163h5.16zm-21.73 0v-2.581h-5.17v5.163h5.17zm-10.87 0v-2.581h-5.17v5.163h5.17zm-10.87 0v-2.581h-5.17v5.163h5.17zm-21.74 0v-2.581h-5.16v5.163h5.16zm-10.87-10.87v-2.581h-5.16v5.163h5.16zm-21.74 10.87v-2.581h-5.16v5.163h5.16zm-10.87-10.87v-2.581h-5.16v5.163h5.16zm-10.86 0v-2.581h-5.17v5.163h5.17zm-21.74 10.87v-2.581H1027v5.163h5.16zm-10.87-10.87v-2.581h-5.16v5.163h5.16zm-10.87 0v-2.581h-5.16v5.163h5.16zm-21.735 10.87v-2.581h-5.164v5.163h5.164zm173.895 0v-2.581h-5.16v5.163h5.16zm-10.86-10.87v-2.581h-5.17v5.163h5.17zm-10.87 0v-2.581h-5.17v5.163h5.17zm-21.74 10.87v-2.581h-5.16v5.163h5.16zm-10.87-10.87v-2.581h-5.16v5.163h5.16zm-10.87-10.867v-2.581h-5.16v5.163h5.16zm-21.74 10.867v-2.581h-5.16v5.163h5.16zm-10.87-10.867v-2.581h-5.16v5.163h5.16zm-10.86 0v-2.581h-5.17v5.163h5.17zm-21.74 10.867v-2.581H1027v5.163h5.16zm-10.87-10.867v-2.581h-5.16v5.163h5.16zm-10.87 0v-2.581h-5.16v5.163h5.16zm-21.735 10.867v-2.581h-5.164v5.163h5.164zm195.635 0v-2.581h-5.16v5.163h5.16zm-21.74 0v-2.581h-5.16v5.163h5.16zm-10.86-10.867v-2.581h-5.17v5.163h5.17zm-10.87 0v-2.581h-5.17v5.163h5.17zm-21.74 10.867v-2.581h-5.16v5.163h5.16zm-10.87-10.867v-2.581h-5.16v5.163h5.16zm-21.74-10.87v-2.581h-5.16v5.163h5.16zm-5.43 5.435V70.92h-5.16v5.163h5.16zm-5.44 5.435v-2.581h-5.16v5.163h5.16zm-5.43-5.435V70.92h-5.16v5.163h5.16zm-5.44-5.435v-2.581h-5.16v5.163h5.16zm-21.73 0v-2.581h-5.17v5.163h5.17zm-5.44 5.435V70.92h-5.16v5.163h5.16zm-5.43 5.435v-2.581H1027v5.163h5.16zm-5.44-5.435V70.92h-5.16v5.163h5.16zm-5.43-5.435v-2.581h-5.16v5.163h5.16zm-21.738 0v-2.581h-5.164v5.163h5.164zm-5.435 5.435V70.92h-5.163v5.163h5.163zm-5.432 5.435v-2.581h-5.164v5.163h5.164zm-5.435-5.435V70.92h-5.164v5.163h5.164zm-5.435-5.435v-2.581h-5.163v5.163h5.163zm-5.435 5.435V70.92h-5.163v5.163h5.163zm-8.017 13.72h-2.581v5.164h5.163v-5.163zm228.247 16.034h2.58v-5.163h-5.16v5.163zm-2.58-13.451v2.581h5.16v-5.163h-5.16zm-.27-5.436v-2.581h-5.17v5.163h5.17zm-5.44-5.432v-2.581h-5.16v5.163h5.16zm-5.43-5.435V70.92h-5.16v5.163h5.16zm-5.44-5.435v-2.581h-5.16v5.163h5.16zm-5.43 5.435V70.92h-5.16v5.163h5.16zm-5.44 5.435v-2.581h-5.16v5.163h5.16zm-5.43-5.435V70.92h-5.16v5.163h5.16zm-5.43-5.435v-2.581h-5.17v5.163h5.17zm-21.74 0v-2.581h-5.17v5.163h5.17zm-5.44 5.435V70.92h-5.16v5.163h5.16zm-5.43 5.435v-2.581h-5.16v5.163h5.16zm-5.43-5.435V70.92h-5.17v5.163h5.17zm-5.44-5.435v-2.581h-5.16v5.163h5.16zm86.95-18.883h5.71v-5.707h-5.71z"/><path d="M1173.45 49.183h5.71v-5.707h-5.71zm-21.74 0h5.71v-5.707h-5.71zm-32.6 0h5.7v-5.707h-5.7zm-5.16-5.707h-5.71v5.707h5.71zm-38.32 5.707h5.71v-5.707h-5.71zm-10.87 0h5.71v-5.707h-5.71zm-32.6 0h5.7v-5.707h-5.7zm-10.87 0h5.71v-5.707h-5.71zm-32.606 0h5.707v-5.707h-5.707zm-10.87 0h5.707v-5.707h-5.707zm-10.869 0h5.706v-5.707h-5.706zM1162.58 38.31h5.71v-5.706h-5.71zm-21.73 0h5.7v-5.706h-5.7zm-10.87 0h5.7v-5.706h-5.7zm-5.17-5.706h-5.7v5.707h5.7zm-10.86 0h-5.71v5.707h5.71zm-10.87 0h-5.71v5.707h5.71zm-16.58 5.706h5.71v-5.706h-5.71zm-10.87 0h5.71v-5.706h-5.71zm-10.87 0h5.71v-5.706h-5.71zm-10.86 0h5.7v-5.706h-5.7zm-10.87 0h5.7v-5.706h-5.7zm-10.87 0h5.7v-5.706h-5.7zm-10.87 0h5.71v-5.706h-5.71zm-10.87 0h5.71v-5.706h-5.71zm-10.869 0h5.709v-5.706h-5.709zm-10.867 0h5.707v-5.706h-5.707zm-10.87 0h5.707v-5.706h-5.707zm-10.869 0h5.706v-5.706h-5.706zm228.245-10.866h5.71v-5.706h-5.71zm-16.03-5.706h-5.71v5.706h5.71zm-21.74 0h-5.71v5.706h5.71zm-21.74 0h-5.7v5.706h5.7zm-21.73 0h-5.71v5.706h5.71zm-27.45 5.706h5.71v-5.706h-5.71zm-21.74 0h5.71v-5.706h-5.71zm-21.73 0h5.7v-5.706h-5.7zm-21.74 0h5.71v-5.706h-5.71zm-21.739 0h5.709v-5.706h-5.709zm-21.737 0h5.707v-5.706h-5.707zm119.556-10.87h5.71v-5.707h-5.71zm-16.03-5.707h-5.71v5.707h5.71zm-16.58 5.707h5.71v-5.707h-5.71zm-16.03-5.707h-5.7v5.707h5.7zm-16.57 5.707h5.7v-5.707h-5.7zm-5.16-5.707h-5.71v5.707h5.71zm-16.58 5.707h5.71v-5.707h-5.71zm-5.16-5.707h-5.709v5.707h5.709zm-27.446 5.707h5.707v-5.707h-5.707zm-5.163-5.707h-5.706v5.707h5.706zM1135.68-.002h-5.7v5.707h5.7zm-21.73 0h-5.71v5.707h5.71zm-21.74 0h-5.71v5.707h5.71zm-21.74 0h-5.71v5.707h5.71zm-10.87 0h-5.7v5.707h5.7zm-21.74 0h-5.7v5.707h5.7zm-21.73 0h-5.71v5.707h5.71zm-21.739 0h-5.707v5.707h5.707zm-10.87 0h-5.707v5.707h5.707z"/></g><g fill="#C8E1DD" clip-path="url(#f)"><path d="M1344.76 59.778h2.58v-5.435h5.71v5.707h-5.43v5.163h5.43v5.435h5.16v-5.435h5.44V60.05h-5.44v-5.707h5.71v5.435h5.16v-5.435h5.44V49.18h-5.44v-5.707h5.71v5.435h5.16v-5.435h5.71v5.707h-5.44v5.163h5.44v5.435h5.16v-5.435h5.71v5.707h-5.44v5.163h5.44v5.435h5.16v-5.435h5.44V60.05h-5.44v-5.707h5.71v5.435h5.16v-5.435h5.71v5.707h-5.44v5.163h5.44v5.435h5.16v-5.435h5.44V60.05h-5.44v-5.707h5.71v5.435h5.16v-5.435h5.7v5.707h-5.43v5.163h5.43v5.707h-5.71v-5.435h-5.16v5.435h-5.43v5.163h5.43v5.435h5.16v-5.435h5.71v5.707h-5.43v5.163h5.43v5.706h-5.43v5.164h5.43v87.223h-244.82V97.823h5.44V92.66h-5.44V76.082h5.44V70.92h-5.44v-5.707h5.71v5.435h5.16v-5.435h5.44V60.05h-5.44v-5.707h5.71v5.435h5.16v-5.435h5.71v5.707h-5.44v5.163h5.44v5.435h5.16v-5.435h5.43V60.05h-5.43v-5.707h5.71v5.435h5.16v-5.435h5.43V49.18h-5.43v-5.707h5.71v5.435h5.16v-5.435h5.71v5.707h-5.44v5.163h5.44v5.435h5.16v-5.435h5.71v5.707h-5.44v5.163h5.44v5.435h5.16v-5.435h5.43V60.05h-5.43v-5.707h5.71v5.435h5.16v-5.435h5.43V49.18h-5.43v-5.707h5.71v5.435h5.16v-5.435h5.7v5.707h-5.43v5.163h5.43v5.435h5.17v-5.435h5.7v5.707h-5.43v5.163h5.43v5.435h5.17v-5.435h5.43V60.05h-5.43v-5.707h5.7v5.435h5.17v-5.435h5.43V49.18h-5.43v-5.707h5.7v5.435h5.17v-5.435h5.7v5.707h-5.43v5.163h5.43v5.435h2.59zm30.03-2.444v2.716h-5.44v5.163h5.44v5.435h5.16v-5.435h5.44V60.05h-5.44v-5.435h-5.16v2.718Zm-173.9 43.339v2.582h5.16v-5.163h-5.16zm0-21.737v2.582h5.16v-5.163h-5.16zm43.47-21.603v2.717h-5.43v5.163h5.43v5.435h5.16v-5.435h5.44V60.05h-5.44v-5.435h-5.16zm43.48 0v2.717h-5.44v5.163h5.44v5.435h5.16v-5.435h5.44V60.05H1293v-5.435h-5.16zm43.47 0v2.717h-5.43v5.163h5.43v5.435h5.16v-5.435h5.44V60.05h-5.44v-5.435h-5.16zm27.18 27.035v2.582h5.16v-5.163h-5.16zm5.43-5.432v2.582h5.16v-5.163h-5.16zm5.43-5.435v2.582h5.17V70.92h-5.17v2.58Zm10.87 0v2.582h5.17V70.92h-5.17v2.58Zm21.74 10.867v2.582h5.16v-5.163h-5.16zm5.43-5.432v2.582h5.17v-5.163h-5.17zm-201.07 5.432v2.582h5.16v-5.163h-5.16zm5.43-5.432v2.582h5.17v-5.163h-5.17zm16.31 5.432v2.582h5.16v-5.163h-5.16zm5.43-5.432v2.582h5.17v-5.163h-5.17zm5.44-5.435v2.582h5.16V70.92h-5.16v2.58Zm10.87 0v2.582h5.16V70.92h-5.16v2.58Zm21.73 10.867v2.582h5.17v-5.163h-5.17zm5.44-5.432v2.582h5.16v-5.163h-5.16zm5.43-5.435v2.582h5.17V70.92h-5.17v2.58Zm10.87 0v2.582h5.17V70.92h-5.17v2.58Zm21.74 10.867v2.582h5.16v-5.163h-5.16zm5.43-5.432v2.582h5.17v-5.163h-5.17zm5.44-5.435v2.582h5.16V70.92h-5.16v2.58Zm10.87 0v2.582h5.16V70.92h-5.16v2.58Zm27.17 16.302v2.582h5.16v-5.163h-5.16zm16.3-5.434v2.581h5.17v-5.163h-5.17zm27.17 5.434v2.582h5.17v-5.163h-5.17zm16.03 10.87v-2.581h-5.16v5.163h5.16zm-211.67-10.87v2.582h5.17v-5.163h-5.17zm21.74 0v2.582h5.17v-5.163h-5.17zm16.31-5.434v2.581h5.16v-5.163h-5.16zm27.17 5.434v2.582h5.16v-5.163h-5.16zm16.3-5.434v2.581h5.17v-5.163h-5.17zm27.17 5.434v2.582h5.17v-5.163h-5.17zm16.31-5.434v2.581h5.16v-5.163h-5.16zm76.08 10.87v2.581h5.16v-5.163h-5.16zm-198.49 2.853h-2.59v5.163h5.17v-5.163zm122.13 2.581v-2.581h-5.16v5.163h5.16zm-10.86 0v-2.581h-5.17v5.163h5.17zm-21.74 0v-2.581h-5.17v5.163h5.17zm-10.87 0v-2.581h-5.16v5.163h5.16zm-10.87 0v-2.581h-5.16v5.163h5.16zm-21.74 0v-2.581h-5.16v5.163h5.16zm-10.87 0v-2.581h-5.16v5.163h5.16zm-10.87 0v-2.581h-5.16v5.163h5.16zm173.91 0v-2.581h-5.17v5.163h5.17zm-21.74 0v-2.581h-5.17v5.163h5.17zm-10.87 0v-2.581h-5.16v5.163h5.16zm-10.87 0v-2.581h-5.16v5.163h5.16zm-21.74 0v-2.581h-5.16v5.163h5.16zm-10.87-10.87v-2.581h-5.16v5.163h5.16zm-21.73 10.87v-2.581h-5.17v5.163h5.17zm-10.87-10.87v-2.581h-5.17v5.163h5.17zm-10.87 0v-2.581h-5.16v5.163h5.16zm-21.74 10.87v-2.581h-5.16v5.163h5.16zm-10.87-10.87v-2.581h-5.16v5.163h5.16zm-10.87 0v-2.581h-5.16v5.163h5.16zm-21.73 10.87v-2.581h-5.17v5.163h5.17zm173.9 0v-2.581h-5.17v5.163h5.17zm-10.87-10.87v-2.581h-5.17v5.163h5.17zm-10.87 0v-2.581h-5.16v5.163h5.16zm-21.74 10.87v-2.581h-5.16v5.163h5.16zm-10.87-10.87v-2.581h-5.16v5.163h5.16zm-10.87-10.867v-2.581h-5.16v5.163h5.16zm-21.73 10.867v-2.581h-5.17v5.163h5.17zm-10.87-10.867v-2.581h-5.17v5.163h5.17zm-10.87 0v-2.581h-5.16v5.163h5.16zm-21.74 10.867v-2.581h-5.16v5.163h5.16zm-10.87-10.867v-2.581h-5.16v5.163h5.16zm-10.87 0v-2.581h-5.16v5.163h5.16zm-21.73 10.867v-2.581h-5.17v5.163h5.17zm195.63 0v-2.581h-5.16v5.163h5.16zm-21.73 0v-2.581h-5.17v5.163h5.17zm-10.87-10.867v-2.581h-5.17v5.163h5.17zm-10.87 0v-2.581h-5.16v5.163h5.16zm-21.74 10.867v-2.581h-5.16v5.163h5.16zm-10.87-10.867v-2.581h-5.16v5.163h5.16zm-21.73-10.87v-2.581h-5.17v5.163h5.17zm-5.44 5.435V70.92h-5.16v5.163h5.16zm-5.43 5.435v-2.581h-5.17v5.163h5.17zm-5.44-5.435V70.92h-5.16v5.163h5.16zm-5.43-5.435v-2.581h-5.17v5.163h5.17zm-21.74 0v-2.581h-5.16v5.163h5.16zm-5.43 5.435V70.92h-5.17v5.163h5.17zm-5.44 5.435v-2.581h-5.16v5.163h5.16zm-5.43-5.435V70.92h-5.17v5.163h5.17zm-5.44-5.435v-2.581h-5.16v5.163h5.16zm-21.74 0v-2.581h-5.16v5.163h5.16zm-5.43 5.435V70.92h-5.16v5.163h5.16zm-5.43 5.435v-2.581h-5.17v5.163h5.17zm-5.44-5.435V70.92h-5.16v5.163h5.16zm-5.43-5.435v-2.581h-5.17v5.163h5.17zm-5.44 5.435V70.92h-5.16v5.163h5.16zm-8.01 13.72h-2.59v5.164h5.17v-5.163zm228.24 16.034h2.58v-5.163h-5.16v5.163zm-2.58-13.451v2.581h5.16v-5.163h-5.16zm-.27-5.436v-2.581h-5.16v5.163h5.16zm-5.44-5.432v-2.581h-5.16v5.163h5.16zm-5.43-5.435V70.92h-5.16v5.163h5.16zm-5.43-5.435v-2.581h-5.17v5.163h5.17zm-5.44 5.435V70.92h-5.16v5.163h5.16zm-5.43 5.435v-2.581h-5.17v5.163h5.17zm-5.44-5.435V70.92h-5.16v5.163h5.16zm-5.43-5.435v-2.581h-5.17v5.163h5.17zm-21.74 0v-2.581h-5.16v5.163h5.16zm-5.43 5.435V70.92h-5.17v5.163h5.17zm-5.44 5.435v-2.581h-5.16v5.163h5.16zm-5.43-5.435V70.92h-5.16v5.163h5.16zm-5.44-5.435v-2.581h-5.16v5.163h5.16zm86.95-18.883h5.71v-5.707h-5.71z"/><path d="M1412.56 49.183h5.7v-5.707h-5.7zm-21.74 0h5.7v-5.707h-5.7zm-32.61 0h5.71v-5.707h-5.71zm-5.16-5.707h-5.71v5.707h5.71zm-38.31 5.707h5.7v-5.707h-5.7zm-10.87 0h5.7v-5.707h-5.7zm-32.61 0h5.71v-5.707h-5.71zm-10.87 0h5.71v-5.707h-5.71zm-32.6 0h5.7v-5.707h-5.7zm-10.87 0h5.7v-5.707h-5.7zm-10.87 0h5.7v-5.707h-5.7zm195.64-10.873h5.7v-5.706h-5.7zm-21.74 0h5.71v-5.706h-5.71zm-10.87 0h5.71v-5.706h-5.71zm-5.16-5.706h-5.71v5.707h5.71zm-10.87 0h-5.71v5.707h5.71zm-10.87 0h-5.71v5.707h5.71zm-16.57 5.706h5.7v-5.706h-5.7zm-10.87 0h5.7v-5.706h-5.7zm-10.87 0h5.7v-5.706h-5.7zm-10.87 0h5.7v-5.706h-5.7zm-10.87 0h5.71v-5.706h-5.71zm-10.87 0h5.71v-5.706h-5.71zm-10.87 0h5.71v-5.706h-5.71zm-10.87 0h5.71v-5.706h-5.71zm-10.87 0h5.71v-5.706h-5.71zm-10.86 0h5.7v-5.706h-5.7zm-10.87 0h5.7v-5.706h-5.7zm-10.87 0h5.7v-5.706h-5.7zm228.24-10.866h5.71v-5.706h-5.71zm-16.03-5.706h-5.7v5.706h5.7zm-21.74 0h-5.7v5.706h5.7zm-21.73 0h-5.71v5.706h5.71zm-21.74 0h-5.71v5.706h5.71zm-27.44 5.706h5.7v-5.706h-5.7zm-21.74 0h5.7v-5.706h-5.7zm-21.74 0h5.71v-5.706h-5.71zm-21.74 0h5.71v-5.706h-5.71zm-21.74 0h5.71v-5.706h-5.71zm-21.73 0h5.7v-5.706h-5.7zm119.55-10.87h5.71v-5.707h-5.71zm-16.03-5.707h-5.7v5.707h5.7zm-16.57 5.707h5.7v-5.707h-5.7zm-16.03-5.707h-5.71v5.707h5.71zm-16.58 5.707h5.71v-5.707h-5.71zm-5.16-5.707h-5.71v5.707h5.71zm-16.58 5.707h5.71v-5.707h-5.71zm-5.16-5.707h-5.71v5.707h5.71zm-27.44 5.707h5.7v-5.707h-5.7zm-5.17-5.707h-5.7v5.707h5.7zM1374.79-.002h-5.71v5.707h5.71zm-21.74 0h-5.71v5.707h5.71zm-21.74 0h-5.7v5.707h5.7zm-21.74 0h-5.7v5.707h5.7zm-10.87 0h-5.7v5.707h5.7zm-21.73 0h-5.71v5.707h5.71zm-21.74 0h-5.71v5.707h5.71zm-21.74 0h-5.7v5.707h5.7zm-10.87 0h-5.7v5.707h5.7z"/></g><defs><clipPath id="a"><path fill="#fff" d="M0 .042h238.937V119.51H0z"/></clipPath><clipPath id="b"><path fill="#fff" d="M477.873.042H238.936V119.51h238.937z"/></clipPath><clipPath id="c"><path fill="#fff" d="M477.873 0h244.82v119.551h-244.82z"/></clipPath><clipPath id="d"><path fill="#fff" d="M961.795 0H722.693v119.551h239.102z"/></clipPath><clipPath id="e"><path fill="#fff" d="M1200.9 0H961.798v119.551H1200.9z"/></clipPath><clipPath id="f"><path fill="#fff" d="M1440 0h-239.102v119.551H1440z"/></clipPath></defs></svg>